<svg xmlns="http://www.w3.org/2000/svg" xmlns:xlink="http://www.w3.org/1999/xlink" width="402" height="919" viewBox="0 0 402 919"><defs><clipPath id="clip-path"><rect width="31.777" height="194.079" fill="none"></rect></clipPath></defs><g id="Grupo_32" data-name="Grupo 32" transform="translate(-223 -3513)"><g id="Ret&#xE2;ngulo_15" data-name="Ret&#xE2;ngulo 15" transform="translate(223 3513)" fill="#fff" stroke="rgba(255,78,0,0.69)" stroke-width="3"><rect width="402" height="919" rx="18" stroke="none"></rect><rect x="1.5" y="1.5" width="399" height="916" rx="16.5" fill="none"></rect></g><text id="A_op&#xE7;&#xE3;o_mais_econ&#xF4;mica_para_sua_empresa" data-name="A op&#xE7;&#xE3;o mais econ&#xF4;mica para sua empresa" transform="translate(424 3648)" font-size="20" font-family="Poppins-Regular, Poppins"><tspan x="-155.03" y="0">A opção mais econômica para</tspan><tspan x="-65.98" y="30">sua empresa</tspan></text><text id="MENSALIDADES_A_PARTIR_DE:" data-name="MENSALIDADES A PARTIR DE:" transform="translate(424 3740)" font-size="21" font-family="Poppins-Medium, Poppins" font-weight="500"><tspan x="-140.27" y="0">MENSALIDADES A PARTIR DE:</tspan></text><g id="Grupo_9" data-name="Grupo 9" transform="translate(314 5770.734)"><text id="_79_00" data-name="79,00" transform="translate(111 -1932.734)" fill="rgba(255,78,0,0.69)" font-size="66" font-family="Poppins-SemiBold, Poppins" font-weight="600"><tspan x="-85.47" y="0">79,00</tspan></text></g><text id="R_" data-name="R$" transform="translate(314 3840)" fill="rgba(255,78,0,0.69)" font-size="34" font-family="Poppins-Medium, Poppins" font-weight="500"><tspan x="-20.315" y="0">R$</tspan></text><rect id="Ret&#xE2;ngulo_34" data-name="Ret&#xE2;ngulo 34" width="324" height="56" rx="8" transform="translate(261 3908)" fill="rgba(255,78,0,0.69)"></rect><text id="Contabilidade_completa_da_empresa_inclusa_" data-name="Contabilidade completa da  empresa inclusa!" transform="translate(423 4020)" font-size="20" font-family="Poppins-Medium, Poppins" font-weight="500"><tspan x="-149.82" y="0">CONTABILIDADE COMPLETA DA </tspan><tspan x="-89.99" y="30">EMPRESA INCLUSA!</tspan></text><line id="Linha_1" data-name="Linha 1" x2="324" transform="translate(261.5 4072.5)" fill="none" stroke="rgba(255,78,0,0.69)" stroke-width="1"></line><text id="inclUSO_no_Plano:" data-name="inclUSO no Plano:" transform="translate(350 4122)" font-size="21" font-family="Poppins-Medium, Poppins" font-weight="500"><tspan x="-88.903" y="0">Incluso no plano:</tspan></text><g id="check-symbol" transform="translate(257 4147.119)" clip-path="url(#clip-path)"><g id="check-symbol-2" data-name="check-symbol" transform="translate(0 -53.55)"><g id="Grupo_26" data-name="Grupo 26" transform="translate(0 53.55)"><g id="check" transform="translate(7 17)"><path id="Caminho_47" data-name="Caminho 47" d="M6.929,66.666l-5.2-5.2L0,63.2l6.929,6.929L21.777,55.282,20.045,53.55Z" transform="translate(0 -53.55)" fill="rgba(255,78,0,0.69)"></path></g></g></g><g id="check-symbol-3" data-name="check-symbol" transform="translate(0 -1.55)"><g id="Grupo_26-2" data-name="Grupo 26" transform="translate(0 53.55)"><g id="check-2" data-name="check" transform="translate(7 17)"><path id="Caminho_47-2" data-name="Caminho 47" d="M6.929,66.666l-5.2-5.2L0,63.2l6.929,6.929L21.777,55.282,20.045,53.55Z" transform="translate(0 -53.55)" fill="rgba(255,78,0,0.69)"></path></g></g></g><g id="check-symbol-4" data-name="check-symbol" transform="translate(0 50.45)"><g id="Grupo_26-3" data-name="Grupo 26" transform="translate(0 53.55)"><g id="check-3" data-name="check" transform="translate(7 17)"><path id="Caminho_47-3" data-name="Caminho 47" d="M6.929,66.666l-5.2-5.2L0,63.2l6.929,6.929L21.777,55.282,20.045,53.55Z" transform="translate(0 -53.55)" fill="rgba(255,78,0,0.69)"></path></g></g></g><g id="check-symbol-5" data-name="check-symbol" transform="translate(0 102.45)"><g id="Grupo_26-4" data-name="Grupo 26" transform="translate(0 53.55)"><g id="check-4" data-name="check" transform="translate(7 17)"><path id="Caminho_47-4" data-name="Caminho 47" d="M6.929,66.666l-5.2-5.2L0,63.2l6.929,6.929L21.777,55.282,20.045,53.55Z" transform="translate(0 -53.55)" fill="rgba(255,78,0,0.69)"></path></g></g></g></g><text id="Processo_de_abertura_de_empresa_gr&#xE1;tis_" data-name="Processo de abertura de empresa gr&#xE1;tis*" transform="translate(294 4170)" font-size="18" font-family="Poppins-Medium, Poppins" font-weight="500"><tspan x="0" y="0">Processo de abertura de empresa</tspan><tspan x="0" y="19">grátis*</tspan></text><text id="Abertura_sem_sair_de_casa_gr&#xE1;tis_" data-name="Abertura sem sair de casa gr&#xE1;tis*" transform="translate(292 4230)" font-size="18" font-family="Poppins-Medium, Poppins" font-weight="500"><tspan x="0" y="0">Abertura sem sair de casa grátis*</tspan></text><text id="atendimento_especializado_via_chat_e_e-mail" data-name="atendimento especializado via  chat e e-mail" transform="translate(294 4275)" font-size="18" font-family="Poppins-Medium, Poppins" font-weight="500"><tspan x="0" y="0">Atendimento especializado via </tspan><tspan x="0" y="19">chat e e-mail</tspan></text><text id="atendimento_via_chat_at&#xE9;_as_17:30" data-name="atendimento via chat at&#xE9; as 17:30" transform="translate(294 4335)" font-size="18" font-family="Poppins-Medium, Poppins" font-weight="500"><tspan x="0" y="0">Atendimento via chat até as 17:30</tspan></text><path id="Icon_ionic-ios-arrow-back" data-name="Icon ionic-ios-arrow-back" d="M15.437,17.59l9.191-8.62a1.553,1.553,0,0,0,0-2.3,1.826,1.826,0,0,0-2.459,0L11.756,16.437a1.555,1.555,0,0,0-.051,2.247l10.457,9.835a1.828,1.828,0,0,0,2.459,0,1.553,1.553,0,0,0,0-2.3Z" transform="translate(558.748 4421.812) rotate(-90)" fill="#fff"></path><path id="Caminho_49" data-name="Caminho 49" d="M14.764.007l365,.008A16.212,16.212,0,0,1,387.125,1.3a14.505,14.505,0,0,1,6.219,5.188,10.2,10.2,0,0,1,1.594,3,12.952,12.952,0,0,1,.8,2.688c0,40.349-32.826,71.846-73.647,71.846H73.913c-38.535,0-70.5-28.737-73.944-66.174a27.748,27.748,0,0,1,.391-6.219A16.828,16.828,0,0,1,2.406,6.781,16.155,16.155,0,0,1,6.375,2.765,14.635,14.635,0,0,1,14.764.007Z" transform="translate(226 3515.983)" fill="rgba(255,78,0,0.69)"></path><text id="B&#xE1;sico" transform="translate(424 3571)" fill="#fff" font-size="38" font-family="Poppins-SemiBold, Poppins" font-weight="600"><tspan x="-64.163" y="0">Básico</tspan></text><path id="Ret&#xE2;ngulo_44" data-name="Ret&#xE2;ngulo 44" d="M43.059,0H352.941A43.059,43.059,0,0,1,396,43.059v0A14.941,14.941,0,0,1,381.059,58H14.941A14.941,14.941,0,0,1,0,43.059v0A43.059,43.059,0,0,1,43.059,0Z" transform="translate(226 4371)" fill="rgba(255,78,0,0.69)"></path></g></svg>